<?xml version="1.0" encoding="utf-8"?>

<!DOCTYPE svg PUBLIC "-//W3C//DTD SVG 1.1//EN" "http://www.w3.org/Graphics/SVG/1.1/DTD/svg11.dtd">
<svg version="1.1" id="Layer_1" xmlns="http://www.w3.org/2000/svg" xmlns:xlink="http://www.w3.org/1999/xlink" x="0px" y="0px"
	 viewBox="0 0 1652.815 1652.815" enable-background="new 0 0 1652.815 1652.815" xml:space="preserve">
<g id="Layer_x0020_1">
	<g id="_804538528">
		<path d="M1276.825,267.878c-0.758,2.274-1.592,4.472-2.577,6.67h104.019v104.019c2.198-0.985,4.396-1.819,6.67-2.577V267.878
			C1369.747,267.878,1291.77,267.878,1276.825,267.878z M1384.936,1276.825c-2.274-0.758-4.472-1.592-6.67-2.577v104.019h-104.019
			c0.985,2.198,1.819,4.396,2.577,6.67h108.112C1384.936,1369.747,1384.936,1291.77,1384.936,1276.825z M267.878,1384.936H375.99
			c0.758-2.274,1.592-4.472,2.577-6.67H274.548v-104.019c-2.198,0.985-4.396,1.819-6.67,2.577V1384.936z M267.878,267.878V375.99
			c2.274,0.758,4.472,1.592,6.67,2.577V274.548h104.019c-0.985-2.198-1.819-4.396-2.577-6.67H267.878z M1265.229,267.878h-216.763
			l5.002,6.67H1262.5C1263.637,272.426,1264.547,270.152,1265.229,267.878z M267.878,387.586v216.763l6.67-5.002V390.314
			C272.426,389.177,270.152,388.268,267.878,387.586z M387.586,1384.936h216.763l-5.002-6.67H390.314
			C389.177,1380.389,388.268,1382.663,387.586,1384.936z M1384.936,1265.229v-216.763l-6.67,5.002V1262.5
			C1380.389,1263.637,1382.663,1264.547,1384.936,1265.229z M1378.267,390.314v209.032l6.67,5.002V387.586
			C1382.663,388.268,1380.389,389.177,1378.267,390.314z M390.314,274.548h209.032l5.002-6.67H387.586
			C388.268,270.152,389.177,272.426,390.314,274.548z M274.548,1262.501v-209.032l-6.67-5.002v216.763
			C270.152,1264.547,272.426,1263.637,274.548,1262.501z M1262.501,1378.267h-209.032l-5.002,6.67h216.763
			C1264.547,1382.663,1263.637,1380.389,1262.501,1378.267z M1242.568,215.356c47.814,25.128,27.368,92.253-30.165,75.338
			c-2.564-10.218-15.238-5.359-9.852,1.819c5.291,6.516,26.767,8.404,39.791,5.457c57.871-12.191,53.24-127.857-76.701-109.292
			l-2.198,0.379c1.672,5.012,2.425,10.906,2.425,15.764C1193.938,200.42,1225.502,206.284,1242.568,215.356z M215.356,410.247
			c25.131-47.82,92.253-27.362,75.338,30.166c-10.267,2.575-5.339,15.222,1.819,9.852c6.516-5.291,8.404-26.768,5.457-39.791
			c-12.178-57.812-127.861-53.261-109.292,76.702l0.379,2.198c5.012-1.672,10.906-2.425,15.764-2.425
			C200.416,458.829,206.297,427.289,215.356,410.247z M410.247,1437.459c-47.817-25.13-27.369-92.25,30.166-75.337
			c2.564,10.222,15.237,5.358,9.852-1.819c-5.383-6.629-27.103-8.328-39.791-5.457c-57.874,12.178-53.24,127.856,76.702,109.291
			l2.198-0.379c-1.704-5.11-2.425-11.048-2.425-15.764C458.821,1452.399,427.284,1446.515,410.247,1437.459z M1437.459,1242.568
			c-25.124,47.806-92.252,27.381-75.337-30.165c10.273-2.578,5.335-15.22-1.819-9.852c-6.522,5.296-8.401,26.783-5.457,39.791
			c12.178,57.873,127.856,53.24,109.291-76.701l-0.379-2.198c-5.013,1.672-10.906,2.425-15.764,2.425
			C1452.401,1193.989,1446.513,1225.535,1437.459,1242.568z M1447.995,486.948c4.956,0,10.733,0.749,15.764,2.425
			c9.103-52.79-10.177-92.523-30.241-105.426c-28.232-18.59-63.435-6.243-74.275,14.627c-8.128,14.689-6.372,36.772-2.577,46.081
			c6.844,16.421,18.572-0.952,5.457-4.243C1338.782,361.097,1468.608,355.069,1447.995,486.948z M486.948,204.82
			c0-4.935,0.745-10.721,2.425-15.764c-53.646-9.25-92.89,10.748-105.426,30.241c-18.634,28.296-6.182,63.473,14.627,74.276
			c14.113,7.81,36.003,6.685,46.081,2.577c16.421-6.844-0.952-18.573-4.243-5.457C361.153,314.015,355.07,184.208,486.948,204.82z
			 M204.82,1165.867c-4.956,0-10.733-0.749-15.764-2.425c-9.246,53.621,10.735,92.888,30.241,105.426
			c28.311,18.643,63.477,6.178,74.276-14.628c7.809-14.113,6.685-36.003,2.577-46.081c-6.842-16.422-18.579,0.954-5.457,4.243
			C314.075,1291.861,184.238,1297.56,204.82,1165.867z M1165.867,1447.995c0,4.956-0.749,10.733-2.425,15.764
			c53.667,9.255,92.907-10.765,105.426-30.241c18.59-28.23,6.242-63.438-14.628-74.275c-14.689-8.128-36.772-6.372-46.081-2.577
			c-16.422,6.842,0.954,18.58,4.243,5.457C1291.533,1338.836,1297.762,1468.61,1165.867,1447.995z M883.317,268.864
			c-2.501-4.169-4.775-9.095-5.76-13.946c3.625-8.453-8.408-12.016-6.822-0.91c4.211,30.994,46.507,75.62,124.829,36.455
			c53.474-27.188,105.313-70.729,159.767-83.598c0.194-2.129-0.003-10.362-2.35-15.84
			c-67.523,14.369-142.217,89.096-200.468,100.197C923.925,296.671,898.487,294.009,883.317,268.864z M268.864,769.498
			c-4.169,2.501-9.095,4.775-13.946,5.76c-8.453-3.625-12.016,8.408-0.91,6.822c30.994-4.211,75.62-46.507,36.455-124.829
			c-27.17-53.438-70.738-105.336-83.598-159.768c-2.129-0.194-10.362,0.003-15.84,2.35
			c14.372,67.536,89.092,142.199,100.197,200.468C296.672,728.89,294.009,754.328,268.864,769.498z M769.498,1383.951
			c2.501,4.169,4.775,9.095,5.76,13.946c-3.62,8.441,8.409,12.025,6.822,0.91c-4.513-33.22-48.292-74.729-124.829-36.455
			c-53.438,27.17-105.335,70.737-159.768,83.598c-0.193,2.121,0.002,10.358,2.35,15.84
			c67.447-14.354,142.308-89.112,200.468-100.196C728.97,1356.122,754.359,1358.857,769.498,1383.951z M1383.951,883.317
			c4.169-2.501,9.095-4.775,13.946-5.76c8.441,3.62,12.025-8.409,0.91-6.822c-33.22,4.513-74.729,48.292-36.455,124.829
			c27.187,53.472,70.73,105.314,83.598,159.767c2.895,0.264,10.823-0.201,15.84-2.35c-14.368-67.513-89.095-142.221-100.196-200.468
			C1356.122,923.845,1358.857,898.456,1383.951,883.317z M1461.789,499.833c-5.037-2.158-13.035-2.606-15.84-2.35
			c-15.412,65.233-78.358,133.235-93.83,184.627c-23.869,76.371,39.988,103.524,51.083,99.818c5.562-2.223,1.504-9.585-5.306-6.67
			c-10.984-2.23-34.288-14.223-37.972-41.912C1348.826,661.237,1444.75,579.899,1461.789,499.833z M499.833,191.025
			c-2.164,5.051-2.603,13.063-2.35,15.84c65.224,15.41,133.241,78.36,184.627,93.83c76.37,23.868,103.524-39.988,99.818-51.083
			c-2.221-5.558-9.588-1.513-6.67,5.306c-3.727,18.358-21.475,41.997-61.77,38.123C643.56,286.316,574.044,206.817,499.833,191.025z
			 M191.025,1152.982c5.037,2.158,13.039,2.606,15.84,2.35c15.339-64.905,78.418-133.432,93.83-184.626
			c23.868-76.37-39.988-103.524-51.083-99.818c-5.558,2.221-1.513,9.588,5.306,6.67c18.358,3.727,41.997,21.475,38.123,61.77
			C286.343,1008.954,206.767,1079.005,191.025,1152.982z M1152.982,1461.789c2.158-5.037,2.606-13.039,2.35-15.84
			c-65.225-15.414-133.241-78.36-184.626-93.83c-76.371-23.869-103.524,39.988-99.818,51.083c2.223,5.562,9.585,1.504,6.67-5.306
			c2.23-10.984,14.223-34.288,41.912-37.972C991.629,1348.818,1072.882,1444.742,1152.982,1461.789z M826.407,41.475
			c0.273-0.224,0.548-0.446,0.824-0.667c30.3,24.24,34.936,40.786,37.29,52.296c-11.983,11.096-31.142,38.129-30.771,53.66
			c0,12.757,12.014,20.838,22.586,11.141c10.709-9.635,19.963-37.257,15.31-62.376c39.59-32.545,131.103-15.464,122.101,61.087
			c-1.79,14.773-5.721,20.82-8.716,25.011h-0.076l-0.455,0.606c-78.836-55.175-94.434,33.217-39.563,29.481
			c15.862-0.707,29.643-9.634,40.776-20.767c7.913,5.469,14.114,9.94,21.525,15.234c-93.925,66.726-156.065,22.267-133.772-30.998
			c4.158-10.519,11.849-19.41,19.176-23.799c0.909,0.682,2.274,1.137,3.411,1.364c12.155,2.709,12.833-16.317-2.803-9.094
			c-24.022,10.165-38.389,49.95-26.83,72.533c17.67,34.93,75.051,56.49,154.16-0.53c14.722,10.188,24.03,16.039,33.045,21.449
			l6.291-3.865c-2.393-1.451-14.114-8.019-33.652-21.676c7.516-5.444,15.623-11.304,23.495-16.523
			c121.403-79.901,140.027,51.106,58.208,53.735c-10.101,0.169-17.698-1.272-28.573-5.685l-6.821,4.169
			c26.669,13.337,63.037,11.496,83.296-15.31c15.047-19.559,12.056-61.051-30.316-72.683
			c-39.761-10.982-79.895,19.846-112.702,42.897c-12.515-8.919-16.62-11.909-22.586-16.068
			c32.554-37.565,16.365-97.046-37.82-113.307c-27.391-7.774-60.621-1.089-82.234,15.537c-6.7-27.466-22.693-45.615-42.974-61.921
			c-0.275,0.223-0.549,0.446-0.824,0.67c-0.275-0.224-0.549-0.447-0.824-0.67c-17.93,14.418-35.842,32.669-42.974,61.921
			c-56.751-43.657-143.587-7.309-136.198,60.329c1.529,13.966,6.706,26.55,16.144,37.441c-5.949,4.146-9.997,7.097-22.586,16.068
			c-33.559-23.579-57.92-41.533-88.676-44.716c-40.65-3.765-74.137,27.602-59.421,65.862c12.001,28.493,52.745,41.768,88.374,23.95
			l-6.821-4.169c-42.078,17.072-78.69-6.514-77.913-38.728c0-30.157,33.971-51.126,90.268-19.781
			c14.356,7.977,24.283,15.037,40.775,26.982c-19.347,13.527-31.028,20.086-33.651,21.676l6.291,3.865
			c8.9-5.341,18.131-11.128,33.045-21.449c128.239,92.471,198.924-20.029,134.303-67.91c-20.413-15.011-23.985,4.272-12.126,5.153
			c2.065,0.172,4.549-0.608,5.761-1.516c5.641,3.386,10.718,8.886,14.401,14.552c33.65,53.279-26.655,112.986-128.997,40.245
			c7.518-5.37,13.604-9.76,21.525-15.234c44.434,44.434,89.676,9.295,68.061-18.492c-11.962-14.834-41.215-8.173-66.848,9.778
			l-0.455-0.606h-0.076c-12.209-17.095-16.271-57.528,8.792-81.02c21.496-20.843,72.477-31.496,104.593-5.078
			c-3.488,18.828,0.882,40.034,8.565,53.66c15.807,27.796,50.31,9.217,10.004-43.428c-3.638-4.623-7.352-8.868-11.444-12.657
			c2.691-13.157,8.442-29.217,37.29-52.296C825.86,41.029,826.134,41.251,826.407,41.475z M1611.34,826.407
			c0.224,0.273,0.446,0.548,0.667,0.824c-24.24,30.3-40.786,34.936-52.296,37.29c-11.09-11.976-38.125-31.142-53.66-30.771
			c-12.783,0-20.821,12.032-11.141,22.586c9.635,10.709,37.257,19.963,62.376,15.31c32.531,39.574,15.451,131.101-61.086,122.101
			c-14.773-1.79-20.82-5.721-25.011-8.716v-0.076l-0.606-0.455c55.13-78.769-33.223-94.501-29.481-39.563
			c0.703,15.783,9.548,29.557,20.767,40.776c-5.469,7.913-9.929,14.098-15.234,21.525c-66.703-93.892-22.298-156.078,30.998-133.772
			c10.466,4.136,19.385,11.807,23.798,19.176c-0.682,0.909-1.137,2.274-1.364,3.411c-2.709,12.155,16.317,12.833,9.094-2.803
			c-10.164-24.022-49.95-38.389-72.533-26.83c-35.336,17.875-56.124,75.559,0.53,154.16c-10.188,14.722-16.039,24.03-21.449,33.045
			l3.865,6.291c1.449-2.391,8.019-14.114,21.676-33.652c5.439,7.509,11.302,15.621,16.523,23.495
			c79.908,121.413-51.104,140.023-53.733,58.208c-0.169-10.101,1.272-17.699,5.685-28.573l-4.168-6.821
			c-13.321,26.62-11.511,63.025,15.31,83.296c19.053,14.657,60.879,12.687,72.684-30.316c10.976-39.74-19.805-79.839-42.896-112.702
			c8.919-12.515,11.909-16.62,16.068-22.586c37.566,32.555,97.047,16.364,113.308-37.82c7.79-27.445,1.051-60.672-15.536-82.234
			c27.585-6.729,45.689-22.788,61.921-42.974c-0.223-0.275-0.446-0.549-0.67-0.824c0.224-0.275,0.447-0.549,0.67-0.824
			c-14.418-17.93-32.669-35.842-61.921-42.974c43.824-56.967,7.112-143.566-60.331-136.198c-13.877,1.519-26.486,6.65-37.441,16.144
			c-4.147-5.95-7.083-9.977-16.068-22.586c23.58-33.56,41.54-57.936,44.715-88.676c3.774-40.748-27.73-74.088-65.863-59.421
			c-28.592,12.043-41.719,52.864-23.95,88.374l4.168-6.821c-16.759-41.305,5.889-78.706,38.727-77.913
			c30.09,0,51.153,33.939,19.78,90.268c-8.067,14.519-15.279,24.617-26.982,40.775c-13.651-19.527-20.229-31.265-21.676-33.651
			l-3.865,6.291c5.341,8.9,11.128,18.131,21.449,33.045c-92.496,128.275,20.043,198.906,67.91,134.303
			c15.011-20.413-4.273-23.983-5.153-12.126c-0.173,2.066,0.608,4.55,1.516,5.761c-3.378,5.628-8.871,10.708-14.552,14.401
			c-53.168,33.58-113.062-26.547-40.244-128.997c5.38,7.531,9.76,13.604,15.234,21.525c-44.417,44.417-9.308,89.685,18.492,68.061
			c14.834-11.962,8.174-41.215-9.778-66.848l0.606-0.455v-0.076c17.059-12.183,57.497-16.302,81.019,8.792
			c20.976,21.633,31.408,72.572,5.078,104.593c-19.165-3.55-40.342,1.056-53.66,8.565c-27.62,15.708-9.574,50.584,43.428,10.004
			c4.623-3.638,8.868-7.352,12.657-11.444c13.156,2.69,29.218,8.443,52.296,37.29C1611.786,825.86,1611.563,826.134,1611.34,826.407
			z M826.407,1611.34c-0.273,0.224-0.548,0.446-0.824,0.667c-30.3-24.24-34.936-40.786-37.29-52.296
			c11.976-11.09,31.142-38.125,30.771-53.66c0-12.783-12.032-20.821-22.586-11.141c-10.709,9.635-19.963,37.257-15.31,62.376
			c-39.574,32.531-131.101,15.451-122.101-61.086c1.79-14.773,5.721-20.82,8.716-25.011h0.076l0.455-0.606
			c78.769,55.13,94.501-33.223,39.563-29.481c-15.783,0.703-29.557,9.548-40.776,20.767c-7.913-5.469-14.098-9.929-21.525-15.234
			c93.892-66.703,156.078-22.298,133.772,30.998c-4.136,10.466-11.807,19.385-19.176,23.798c-0.909-0.682-2.274-1.137-3.411-1.364
			c-12.155-2.709-12.833,16.317,2.803,9.094c24.022-10.164,38.389-49.95,26.83-72.533c-17.875-35.336-75.559-56.124-154.16,0.53
			c-14.722-10.188-24.03-16.039-33.045-21.449l-6.291,3.865c2.383,1.445,14.118,8.022,33.651,21.676
			c-7.496,5.429-15.613,11.296-23.495,16.523c-121.369,79.893-140.026-51.104-58.208-53.733c10.101-0.169,17.699,1.272,28.573,5.685
			l6.821-4.168c-26.619-13.32-63.022-11.515-83.296,15.31c-14.874,19.335-12.347,60.975,30.317,72.684
			c39.743,10.977,79.849-19.813,112.702-42.896c12.515,8.919,16.62,11.909,22.586,16.068
			c-32.555,37.566-16.364,97.047,37.82,113.308c27.445,7.79,60.672,1.051,82.234-15.536c6.729,27.585,22.788,45.689,42.974,61.921
			c0.275-0.223,0.549-0.446,0.824-0.67c0.275,0.224,0.549,0.447,0.824,0.67c17.93-14.418,35.842-32.669,42.974-61.921
			c56.967,43.824,143.566,7.112,136.198-60.331c-1.519-13.877-6.65-26.486-16.144-37.441c5.95-4.147,9.977-7.083,22.586-16.068
			c33.747,23.712,58,41.547,88.676,44.715c40.76,3.775,74.088-27.728,59.42-65.863c-12.023-28.545-52.815-41.744-88.374-23.95
			l6.821,4.168c41.417-16.804,78.703,5.979,77.913,38.727c0,29.885-33.75,51.258-90.267,19.78
			c-14.28-7.934-24.137-14.93-40.776-26.982c19.527-13.651,31.282-20.24,33.652-21.676l-6.291-3.865
			c-8.9,5.341-18.131,11.128-33.045,21.449c-128.275-92.496-198.906,20.043-134.303,67.91c20.413,15.011,23.983-4.273,12.126-5.153
			c-2.061-0.172-4.547,0.606-5.761,1.516c-5.628-3.378-10.708-8.871-14.401-14.552c-33.58-53.168,26.547-113.062,128.997-40.244
			c-7.531,5.38-13.604,9.76-21.525,15.234c-44.417-44.417-89.685-9.308-68.061,18.492c11.962,14.834,41.215,8.174,66.848-9.778
			l0.455,0.606h0.076c12.183,17.059,16.302,57.497-8.792,81.019c-21.633,20.976-72.572,31.408-104.593,5.078
			c3.55-19.165-1.056-40.342-8.565-53.66c-15.708-27.62-50.584-9.574-10.004,43.428c3.638,4.623,7.352,8.868,11.444,12.657
			c-2.69,13.156-8.443,29.218-37.29,52.296C826.955,1611.786,826.68,1611.563,826.407,1611.34z M41.475,826.407
			c-0.224-0.273-0.446-0.548-0.667-0.824c24.24-30.3,40.786-34.936,52.296-37.29c11.096,11.983,38.129,31.142,53.66,30.771
			c12.757,0,20.838-12.014,11.141-22.586c-9.635-10.709-37.257-19.963-62.376-15.31c-32.545-39.59-15.464-131.103,61.087-122.101
			c14.773,1.79,20.82,5.721,25.011,8.716v0.076l0.606,0.455c-55.175,78.836,33.217,94.434,29.481,39.563
			c-0.707-15.862-9.634-29.643-20.767-40.776c5.469-7.913,9.94-14.114,15.234-21.525c66.726,93.925,22.267,156.065-30.998,133.772
			c-10.519-4.158-19.41-11.849-23.799-19.176c0.682-0.909,1.137-2.274,1.364-3.411c2.709-12.155-16.317-12.833-9.094,2.803
			c10.165,24.022,49.95,38.389,72.533,26.83c34.93-17.67,56.49-75.051-0.53-154.16c10.188-14.722,16.039-24.03,21.449-33.045
			l-3.865-6.291c-1.445,2.384-8.022,14.118-21.676,33.651c-5.425-7.49-11.295-15.61-16.523-23.495
			c-79.921-121.412,51.106-140.014,53.735-58.208c0.169,10.101-1.272,17.698-5.685,28.573l4.169,6.821
			c13.292-26.579,11.571-62.98-15.31-83.296c-19.56-15.047-61.054-12.057-72.683,30.317
			c-10.986,39.774,19.873,79.933,42.897,112.702c-8.919,12.515-11.909,16.62-16.068,22.586
			c-37.565-32.554-97.046-16.365-113.307,37.82c-7.774,27.391-1.089,60.621,15.537,82.234c-27.466,6.7-45.615,22.693-61.921,42.974
			c0.223,0.275,0.446,0.549,0.67,0.824c-0.224,0.275-0.447,0.549-0.67,0.824c14.418,17.93,32.669,35.842,61.921,42.974
			c-43.657,56.751-7.309,143.587,60.329,136.198c13.966-1.529,26.55-6.706,37.441-16.144c4.146,5.949,7.097,9.997,16.068,22.586
			c-23.3,33.162-41.518,57.774-44.716,88.676c-3.784,40.865,27.831,74.048,65.862,59.42c28.493-12.001,41.768-52.745,23.95-88.374
			l-4.169,6.821c16.79,41.381-5.946,78.704-38.728,77.913c-30.141,0-51.141-33.942-19.781-90.267
			c7.944-14.298,14.953-24.168,26.982-40.776c13.619,19.478,20.287,31.36,21.676,33.652l3.865-6.291
			c-5.341-8.9-11.128-18.131-21.449-33.045c92.471-128.239-20.029-198.924-67.91-134.303c-15.011,20.413,4.272,23.985,5.153,12.126
			c0.173-2.066-0.608-4.55-1.516-5.761c3.386-5.641,8.886-10.718,14.552-14.401c53.279-33.65,112.986,26.655,40.245,128.997
			c-5.37-7.518-9.76-13.604-15.234-21.525c44.434-44.434,9.295-89.676-18.492-68.061c-14.834,11.962-8.173,41.215,9.778,66.848
			l-0.606,0.455v0.076c-17.095,12.209-57.528,16.271-81.02-8.792c-20.843-21.496-31.496-72.477-5.078-104.593
			c18.828,3.488,40.034-0.882,53.66-8.565c27.796-15.807,9.217-50.31-43.428-10.004c-4.623,3.638-8.868,7.352-12.657,11.444
			c-13.157-2.691-29.217-8.442-52.296-37.29C41.029,826.955,41.251,826.68,41.475,826.407z M865.809,101.062
			c2.566,23.807-6.359,45.126-13.794,51.917c-9.971,9.107-22.803-6.063,6.289-43.201
			C860.731,106.67,863.156,103.714,865.809,101.062z M101.062,787.006c23.807-2.566,45.126,6.359,51.917,13.794
			c9.107,9.971-6.063,22.803-43.201-6.289C106.67,792.084,103.714,789.658,101.062,787.006z M787.006,1551.753
			c-2.566-23.8,6.357-45.125,13.794-51.917c9.973-9.109,22.797,6.071-6.289,43.201
			C792.084,1546.144,789.658,1549.1,787.006,1551.753z M1551.753,865.809c-23.8,2.566-45.125-6.357-51.917-13.794
			c-9.109-9.973,6.071-22.797,43.201,6.289C1546.144,860.731,1549.1,863.156,1551.753,865.809z M1506.127,812.547
			c-23.1,0,0.18-30.431,45.626-25.543C1542.596,796.164,1519.031,812.547,1506.127,812.547z M812.547,146.688
			c0,23.05-30.437-0.131-25.543-45.626C796.115,110.166,812.547,133.759,812.547,146.688z M146.688,840.268
			c23.05,0-0.131,30.437-45.626,25.543C110.209,856.653,133.79,840.268,146.688,840.268z M840.268,1506.127
			c0-23.1,30.431,0.18,25.543,45.626C856.698,1542.647,840.268,1519.056,840.268,1506.127z M960.851,176.172
			c7.502,3.252,14.261,7.682,19.327,10.989c-36.591,36.592-74.339,10.585-57.374-10.61
			C929.885,167.253,949.989,171.385,960.851,176.172z M176.172,691.963c3.252-7.502,7.682-14.261,10.989-19.327
			c36.592,36.591,10.585,74.339-10.61,57.374C167.286,722.96,171.347,702.911,176.172,691.963z M691.963,1476.643
			c-7.502-3.252-14.261-7.682-19.327-10.989c36.552-36.553,74.35-10.597,57.374,10.611
			C722.927,1485.561,702.829,1481.432,691.963,1476.643z M1476.643,960.851c-3.252,7.502-7.682,14.261-10.989,19.327
			c-36.553-36.552-10.597-74.35,10.611-57.374C1485.575,929.903,1481.415,950.024,1476.643,960.851z M1447.616,708.259
			c0.703-13.67,8.478-26.062,18.038-35.622C1511.761,743.251,1445.437,749.56,1447.616,708.259z M708.259,205.199
			c-13.668-0.703-26.062-8.479-35.622-18.039C743.231,141.066,749.568,207.379,708.259,205.199z M205.199,944.556
			c-0.703,13.668-8.479,26.062-18.039,35.622C141.066,909.584,207.379,903.247,205.199,944.556z M944.556,1447.616
			c13.67,0.703,26.062,8.478,35.622,18.038C909.564,1511.761,903.255,1445.437,944.556,1447.616z"/>
	</g>
</g>
</svg>
